<svg id="svg" version="1.1" xmlns="http://www.w3.org/2000/svg" xmlns:xlink="http://www.w3.org/1999/xlink" width="400" height="400" viewBox="0, 0, 400,400"><g id="svgg"><path id="path0" d="M17.800 2.261 C 8.326 3.398,5.889 5.576,3.656 14.906 C 3.028 17.531,2.998 381.328,3.626 383.754 C 5.763 392.008,7.412 394.085,13.294 395.930 C 15.878 396.740,378.901 397.204,385.055 396.405 C 392.769 395.403,396.141 392.563,397.664 385.784 C 398.575 381.730,398.437 15.991,397.524 12.338 C 396.307 7.474,393.776 4.634,389.307 3.118 L 386.600 2.200 202.800 2.158 C 101.710 2.136,18.460 2.182,17.800 2.261 M374.574 22.805 C 375.943 23.510,376.777 24.286,377.363 25.405 L 378.200 27.000 378.317 198.600 C 378.440 379.327,378.512 372.055,376.578 374.353 C 374.332 377.022,383.593 376.830,263.400 376.709 L 154.600 376.600 153.088 375.660 C 152.256 375.143,151.176 373.973,150.688 373.060 L 149.800 371.400 149.800 342.800 C 149.800 312.343,149.825 311.928,151.720 310.601 C 152.916 309.763,156.102 309.852,159.200 310.810 C 187.907 319.687,216.611 318.722,244.000 307.961 C 248.984 306.003,252.393 304.369,261.293 299.675 C 270.033 295.065,267.458 293.368,298.200 323.996 C 327.781 353.468,327.337 353.134,333.156 350.303 C 335.561 349.133,354.201 330.653,355.826 327.828 C 359.115 322.110,359.551 322.702,330.576 293.600 C 299.960 262.849,300.914 264.226,305.009 256.717 C 319.434 230.262,324.960 207.053,322.837 181.842 C 316.031 101.004,239.177 48.607,160.816 71.379 C 149.530 74.659,149.842 75.273,149.679 49.506 C 149.531 26.297,149.734 24.792,153.262 22.968 C 155.663 21.727,159.528 21.684,265.211 21.742 L 372.621 21.800 374.574 22.805 M147.760 79.324 C 148.268 79.832,149.096 81.486,149.600 83.000 C 151.358 88.284,152.562 88.569,161.291 85.769 C 235.366 62.016,309.200 114.573,309.200 191.055 C 309.200 267.977,235.547 320.780,161.503 296.941 C 153.222 294.274,151.557 294.481,150.160 298.349 C 147.212 306.512,143.944 306.129,128.400 295.795 C 67.120 255.058,53.816 170.711,99.600 113.200 C 114.550 94.421,142.909 74.473,147.760 79.324 M144.200 93.981 C 135.640 96.116,116.947 112.265,106.888 126.217 C 70.212 177.084,83.381 249.510,135.600 284.127 C 145.051 290.392,148.633 290.328,149.393 283.880 C 149.527 282.736,149.584 240.310,149.519 189.600 C 149.387 87.493,149.595 95.255,146.962 94.055 C 145.862 93.554,145.907 93.556,144.200 93.981 M297.926 277.351 C 300.701 279.279,339.866 318.902,340.757 320.684 C 342.735 324.635,339.140 331.023,332.873 334.696 C 328.072 337.509,327.975 337.438,303.517 312.927 C 278.001 287.357,278.620 288.446,285.476 281.178 C 290.757 275.580,293.960 274.596,297.926 277.351 " stroke="none" fill="#050505" fill-rule="evenodd"></path><path id="path1" d="M156.131 22.016 C 149.711 23.293,149.517 24.117,149.679 49.506 C 149.842 75.273,149.530 74.659,160.816 71.379 C 239.177 48.607,316.031 101.004,322.837 181.842 C 324.960 207.053,319.434 230.262,305.009 256.717 C 300.914 264.226,299.960 262.849,330.576 293.600 C 359.551 322.702,359.115 322.110,355.826 327.828 C 354.201 330.653,335.561 349.133,333.156 350.303 C 327.337 353.134,327.781 353.468,298.200 323.996 C 267.458 293.368,270.033 295.065,261.293 299.675 C 252.393 304.369,248.984 306.003,244.000 307.961 C 216.611 318.722,187.907 319.687,159.200 310.810 C 156.102 309.852,152.916 309.763,151.720 310.601 C 149.825 311.928,149.800 312.343,149.800 342.800 L 149.800 371.400 150.688 373.060 C 151.176 373.973,152.256 375.143,153.088 375.660 L 154.600 376.600 263.400 376.709 C 383.593 376.830,374.332 377.022,376.578 374.353 C 378.512 372.055,378.440 379.327,378.317 198.600 L 378.200 27.000 377.363 25.405 C 376.777 24.286,375.943 23.510,374.574 22.805 L 372.621 21.800 265.211 21.742 C 206.135 21.710,157.049 21.833,156.131 22.016 M142.002 79.219 C 133.619 82.233,118.382 93.243,108.172 103.664 C 53.051 159.921,62.762 252.161,128.400 295.795 C 143.944 306.129,147.212 306.512,150.160 298.349 C 151.557 294.481,153.222 294.274,161.503 296.941 C 192.491 306.918,224.352 304.158,251.436 289.153 C 316.505 253.100,329.050 165.136,276.620 112.566 C 246.258 82.123,203.584 72.207,161.291 85.769 C 152.562 88.569,151.358 88.284,149.600 83.000 C 148.051 78.346,146.532 77.590,142.002 79.219 M146.962 94.055 C 149.595 95.255,149.387 87.493,149.519 189.600 C 149.584 240.310,149.527 282.736,149.393 283.880 C 148.633 290.328,145.051 290.392,135.600 284.127 C 83.381 249.510,70.212 177.084,106.888 126.217 C 117.707 111.211,137.152 94.883,145.681 93.641 C 145.836 93.618,146.412 93.805,146.962 94.055 M292.492 276.025 C 288.529 276.864,281.600 284.465,281.600 287.973 C 281.600 290.844,282.481 291.847,303.517 312.927 C 324.837 334.292,326.472 335.733,329.400 335.733 C 333.633 335.733,341.600 327.808,341.600 323.597 C 341.600 320.888,340.108 319.194,319.657 298.688 C 296.127 275.093,296.282 275.223,292.492 276.025 " stroke="none" fill="#fbfbfb" fill-rule="evenodd"></path></g></svg>